<svg width="345" height="334" viewBox="0 0 345 334" fill="none" xmlns="http://www.w3.org/2000/svg">
<path d="M116.284 42.0158C133.978 -12.4422 211.022 -12.4422 228.716 42.0158V42.0158C236.629 66.3701 259.325 82.8592 284.932 82.8592V82.8592C342.193 82.8592 366.001 156.132 319.676 189.789V189.789C298.959 204.841 290.29 231.521 298.203 255.875V255.875C315.898 310.333 253.568 355.618 207.244 321.961V321.961C186.527 306.909 158.474 306.909 137.756 321.961V321.961C91.4318 355.618 29.1022 310.333 46.7967 255.875V255.875C54.7099 231.521 46.041 204.841 25.324 189.789V189.789C-21.0007 156.132 2.80705 82.8592 60.0675 82.8592V82.8592C85.6752 82.8592 108.371 66.3701 116.284 42.0158V42.0158Z" fill="#D9D9D9"/>
</svg>
