<svg width="24" height="24" viewBox="0 0 24 24" fill="none" xmlns="http://www.w3.org/2000/svg">
<path d="M13.1601 15.3199C12.8525 15.0122 12.4352 14.8392 12.0001 14.8392C11.5649 14.8392 11.1476 15.0122 10.8401 15.3199L8.53005 17.6299C8.06073 18.099 7.92028 18.8046 8.17424 19.4176C8.4282 20.0306 9.02652 20.4302 9.69005 20.4299H14.3101C14.9736 20.4302 15.5719 20.0306 15.8259 19.4176C16.0798 18.8046 15.9394 18.099 15.4701 17.6299L13.1601 15.3199Z" fill="white"/>
<path d="M19 4.31995H4.99996C3.81646 4.41059 2.92539 5.43532 2.99996 6.61995V13.5199C2.92539 14.7046 3.81646 15.7293 4.99996 15.8199H5.54996C7.11782 15.8216 8.62184 15.1991 9.72996 14.0899L10.54 13.2899C10.9266 12.9016 11.452 12.6832 12 12.6832C12.548 12.6832 13.0734 12.9016 13.46 13.2899L14.27 14.0899C15.3781 15.1991 16.8821 15.8216 18.45 15.8199H19C20.1835 15.7293 21.0745 14.7046 21 13.5199V6.61995C21.0745 5.43532 20.1835 4.41059 19 4.31995Z" fill="white"/>
</svg>
