<svg width="15" height="15" viewBox="0 0 15 15" fill="none" xmlns="http://www.w3.org/2000/svg">
<path d="M13.75 7.50004V7.50004C13.7481 7.579 13.7333 7.65711 13.7063 7.73129C13.6918 7.7577 13.6751 7.78279 13.6563 7.80629C13.6399 7.84092 13.6211 7.87434 13.6 7.9063L9.85 12.2813C9.70486 12.451 9.48021 12.5304 9.26068 12.4895C9.04114 12.4487 8.86007 12.2938 8.78568 12.0833C8.71128 11.8727 8.75486 11.6385 8.9 11.4688L11.7687 8.12504H1.875C1.52982 8.12504 1.25 7.84522 1.25 7.50004C1.25 7.15487 1.52982 6.87504 1.875 6.87504H11.7687L8.9 3.5313C8.75486 3.36159 8.71128 3.12735 8.78568 2.91681C8.86007 2.70626 9.04114 2.5514 9.26068 2.51056C9.48021 2.46971 9.70486 2.54909 9.85 2.7188L13.6 7.0938C13.6211 7.12575 13.6399 7.15917 13.6563 7.19379C13.6751 7.2173 13.6918 7.24239 13.7063 7.26879C13.7333 7.34298 13.7481 7.42109 13.75 7.50004Z" fill="#666666"/>
</svg>
