<svg width="20" height="20" viewBox="0 0 20 20" fill="none" xmlns="http://www.w3.org/2000/svg">
<path fill-rule="evenodd" clip-rule="evenodd" d="M4.16675 1.66669H15.8334C17.2141 1.66669 18.3334 2.78598 18.3334 4.16669V15.8334C18.3334 17.2141 17.2141 18.3334 15.8334 18.3334H4.16675C2.78604 18.3334 1.66675 17.2141 1.66675 15.8334V4.16669C1.66675 2.78598 2.78604 1.66669 4.16675 1.66669ZM8.91675 13.9167L12.2501 10.5834C12.5778 10.2629 12.5853 9.73795 12.2667 9.40835L8.93341 6.07502C8.72352 5.86364 8.4168 5.78029 8.12879 5.85637C7.84078 5.93245 7.61524 6.15641 7.53713 6.44387C7.45901 6.73134 7.54019 7.03864 7.75008 7.25002L10.4834 10L7.74175 12.7417C7.41865 13.0667 7.41865 13.5917 7.74175 13.9167C8.06678 14.2398 8.59172 14.2398 8.91675 13.9167Z" fill="#333333"/>
</svg>
